<?xml version="1.0" encoding="UTF-8"?>
<svg xmlns="http://www.w3.org/2000/svg"
     width="165mm" height="165mm" viewBox="0 0 165 165"
     version="1.1">
  <!-- 8x8 LED grid; pitch = 20 mm; LED dia = 5 mm; hole dia = 1.2 mm -->
  <desc>Grid 8x8 — pitch 20 mm — centers start at (12.5,12.5) mm, increment 20 mm</desc>
  <style>
    .led-body { fill: none; stroke: #000000; stroke-width: 0.5; }
    .hole { fill: #000000; }
    .frame { fill: none; stroke: #666666; stroke-width: 0.4; stroke-dasharray: 1 2; }
    .note { font-family: Arial, monospace; font-size: 4.2px; fill: #000; }
  </style>

  <!-- outer frame -->
  <rect x="0.2" y="0.2" width="164.6" height="164.6" class="frame" />

  <!-- grid markers every 20 mm (for reference) -->
  <!-- vertical lines -->
  <g stroke="#eeeeee" stroke-width="0.2">
    <line x1="0" y1="0" x2="0" y2="165"/>
    <line x1="20" y1="0" x2="20" y2="165"/>
    <line x1="40" y1="0" x2="40" y2="165"/>
    <line x1="60" y1="0" x2="60" y2="165"/>
    <line x1="80" y1="0" x2="80" y2="165"/>
    <line x1="100" y1="0" x2="100" y2="165"/>
    <line x1="120" y1="0" x2="120" y2="165"/>
    <line x1="140" y1="0" x2="140" y2="165"/>
    <line x1="160" y1="0" x2="160" y2="165"/>
  </g>

  <!-- horizontal lines -->
  <g stroke="#eeeeee" stroke-width="0.2">
    <line x1="0" y1="0" x2="165" y2="0"/>
    <line x1="0" y1="20" x2="165" y2="20"/>
    <line x1="0" y1="40" x2="165" y2="40"/>
    <line x1="0" y1="60" x2="165" y2="60"/>
    <line x1="0" y1="80" x2="165" y2="80"/>
    <line x1="0" y1="100" x2="165" y2="100"/>
    <line x1="0" y1="120" x2="165" y2="120"/>
    <line x1="0" y1="140" x2="165" y2="140"/>
    <line x1="0" y1="160" x2="165" y2="160"/>
  </g>

  <!-- LED positions: centers at cx = 12.5 + c*20, cy = 12.5 + r*20 -->
  <!-- hole radius = 0.6 mm; LED body radius = 2.5 mm -->
  <g id="leds">
    <!-- Row 1 -->
    <circle cx="12.5" cy="12.5" r="0.6" class="hole"/>
    <circle cx="12.5" cy="12.5" r="2.5" class="led-body"/>
    <circle cx="32.5" cy="12.5" r="0.6" class="hole"/>
    <circle cx="32.5" cy="12.5" r="2.5" class="led-body"/>
    <circle cx="52.5" cy="12.5" r="0.6" class="hole"/>
    <circle cx="52.5" cy="12.5" r="2.5" class="led-body"/>
    <circle cx="72.5" cy="12.5" r="0.6" class="hole"/>
    <circle cx="72.5" cy="12.5" r="2.5" class="led-body"/>
    <circle cx="92.5" cy="12.5" r="0.6" class="hole"/>
    <circle cx="92.5" cy="12.5" r="2.5" class="led-body"/>
    <circle cx="112.5" cy="12.5" r="0.6" class="hole"/>
    <circle cx="112.5" cy="12.5" r="2.5" class="led-body"/>
    <circle cx="132.5" cy="12.5" r="0.6" class="hole"/>
    <circle cx="132.5" cy="12.5" r="2.5" class="led-body"/>
    <circle cx="152.5" cy="12.5" r="0.6" class="hole"/>
    <circle cx="152.5" cy="12.5" r="2.5" class="led-body"/>

    <!-- Row 2 -->
    <circle cx="12.5" cy="32.5" r="0.6" class="hole"/>
    <circle cx="12.5" cy="32.5" r="2.5" class="led-body"/>
    <circle cx="32.5" cy="32.5" r="0.6" class="hole"/>
    <circle cx="32.5" cy="32.5" r="2.5" class="led-body"/>
    <circle cx="52.5" cy="32.5" r="0.6" class="hole"/>
    <circle cx="52.5" cy="32.5" r="2.5" class="led-body"/>
    <circle cx="72.5" cy="32.5" r="0.6" class="hole"/>
    <circle cx="72.5" cy="32.5" r="2.5" class="led-body"/>
    <circle cx="92.5" cy="32.5" r="0.6" class="hole"/>
    <circle cx="92.5" cy="32.5" r="2.5" class="led-body"/>
    <circle cx="112.5" cy="32.5" r="0.6" class="hole"/>
    <circle cx="112.5" cy="32.5" r="2.5" class="led-body"/>
    <circle cx="132.5" cy="32.5" r="0.6" class="hole"/>
    <circle cx="132.5" cy="32.5" r="2.5" class="led-body"/>
    <circle cx="152.5" cy="32.5" r="0.6" class="hole"/>
    <circle cx="152.5" cy="32.5" r="2.5" class="led-body"/>

    <!-- Row 3 -->
    <circle cx="12.5" cy="52.5" r="0.6" class="hole"/>
    <circle cx="12.5" cy="52.5" r="2.5" class="led-body"/>
    <circle cx="32.5" cy="52.5" r="0.6" class="hole"/>
    <circle cx="32.5" cy="52.5" r="2.5" class="led-body"/>
    <circle cx="52.5" cy="52.5" r="0.6" class="hole"/>
    <circle cx="52.5" cy="52.5" r="2.5" class="led-body"/>
    <circle cx="72.5" cy="52.5" r="0.6" class="hole"/>
    <circle cx="72.5" cy="52.5" r="2.5" class="led-body"/>
    <circle cx="92.5" cy="52.5" r="0.6" class="hole"/>
    <circle cx="92.5" cy="52.5" r="2.5" class="led-body"/>
    <circle cx="112.5" cy="52.5" r="0.6" class="hole"/>
    <circle cx="112.5" cy="52.5" r="2.5" class="led-body"/>
    <circle cx="132.5" cy="52.5" r="0.6" class="hole"/>
    <circle cx="132.5" cy="52.5" r="2.5" class="led-body"/>
    <circle cx="152.5" cy="52.5" r="0.6" class="hole"/>
    <circle cx="152.5" cy="52.5" r="2.5" class="led-body"/>

    <!-- Row 4 -->
    <circle cx="12.5" cy="72.5" r="0.6" class="hole"/>
    <circle cx="12.5" cy="72.5" r="2.5" class="led-body"/>
    <circle cx="32.5" cy="72.5" r="0.6" class="hole"/>
    <circle cx="32.5" cy="72.5" r="2.5" class="led-body"/>
    <circle cx="52.5" cy="72.5" r="0.6" class="hole"/>
    <circle cx="52.5" cy="72.5" r="2.5" class="led-body"/>
    <circle cx="72.5" cy="72.5" r="0.6" class="hole"/>
    <circle cx="72.5" cy="72.5" r="2.5" class="led-body"/>
    <circle cx="92.5" cy="72.5" r="0.6" class="hole"/>
    <circle cx="92.5" cy="72.5" r="2.5" class="led-body"/>
    <circle cx="112.5" cy="72.5" r="0.6" class="hole"/>
    <circle cx="112.5" cy="72.5" r="2.5" class="led-body"/>
    <circle cx="132.5" cy="72.5" r="0.6" class="hole"/>
    <circle cx="132.5" cy="72.5" r="2.5" class="led-body"/>
    <circle cx="152.5" cy="72.5" r="0.6" class="hole"/>
    <circle cx="152.5" cy="72.5" r="2.5" class="led-body"/>

    <!-- Row 5 -->
    <circle cx="12.5" cy="92.5" r="0.6" class="hole"/>
    <circle cx="12.5" cy="92.5" r="2.5" class="led-body"/>
    <circle cx="32.5" cy="92.5" r="0.6" class="hole"/>
    <circle cx="32.5" cy="92.5" r="2.5" class="led-body"/>
    <circle cx="52.5" cy="92.5" r="0.6" class="hole"/>
    <circle cx="52.5" cy="92.5" r="2.5" class="led-body"/>
    <circle cx="72.5" cy="92.5" r="0.6" class="hole"/>
    <circle cx="72.5" cy="92.5" r="2.5" class="led-body"/>
    <circle cx="92.5" cy="92.5" r="0.6" class="hole"/>
    <circle cx="92.5" cy="92.5" r="2.5" class="led-body"/>
    <circle cx="112.5" cy="92.5" r="0.6" class="hole"/>
    <circle cx="112.5" cy="92.5" r="2.5" class="led-body"/>
    <circle cx="132.5" cy="92.5" r="0.6" class="hole"/>
    <circle cx="132.5" cy="92.5" r="2.5" class="led-body"/>
    <circle cx="152.5" cy="92.5" r="0.6" class="hole"/>
    <circle cx="152.5" cy="92.5" r="2.5" class="led-body"/>

    <!-- Row 6 -->
    <circle cx="12.5" cy="112.5" r="0.6" class="hole"/>
    <circle cx="12.5" cy="112.5" r="2.5" class="led-body"/>
    <circle cx="32.5" cy="112.5" r="0.6" class="hole"/>
    <circle cx="32.5" cy="112.5" r="2.5" class="led-body"/>
    <circle cx="52.5" cy="112.5" r="0.6" class="hole"/>
    <circle cx="52.5" cy="112.5" r="2.5" class="led-body"/>
    <circle cx="72.5" cy="112.5" r="0.6" class="hole"/>
    <circle cx="72.5" cy="112.5" r="2.5" class="led-body"/>
    <circle cx="92.5" cy="112.5" r="0.6" class="hole"/>
    <circle cx="92.5" cy="112.5" r="2.5" class="led-body"/>
    <circle cx="112.5" cy="112.5" r="0.6" class="hole"/>
    <circle cx="112.5" cy="112.5" r="2.5" class="led-body"/>
    <circle cx="132.5" cy="112.5" r="0.6" class="hole"/>
    <circle cx="132.5" cy="112.5" r="2.5" class="led-body"/>
    <circle cx="152.5" cy="112.5" r="0.6" class="hole"/>
    <circle cx="152.5" cy="112.5" r="2.5" class="led-body"/>

    <!-- Row 7 -->
    <circle cx="12.5" cy="132.5" r="0.6" class="hole"/>
    <circle cx="12.5" cy="132.5" r="2.5" class="led-body"/>
    <circle cx="32.5" cy="132.5" r="0.6" class="hole"/>
    <circle cx="32.5" cy="132.5" r="2.5" class="led-body"/>
    <circle cx="52.5" cy="132.5" r="0.6" class="hole"/>
    <circle cx="52.5" cy="132.5" r="2.5" class="led-body"/>
    <circle cx="72.5" cy="132.5" r="0.6" class="hole"/>
    <circle cx="72.5" cy="132.5" r="2.5" class="led-body"/>
    <circle cx="92.5" cy="132.5" r="0.6" class="hole"/>
    <circle cx="92.5" cy="132.5" r="2.5" class="led-body"/>
    <circle cx="112.5" cy="132.5" r="0.6" class="hole"/>
    <circle cx="112.5" cy="132.5" r="2.5" class="led-body"/>
    <circle cx="132.5" cy="132.5" r="0.6" class="hole"/>
    <circle cx="132.5" cy="132.5" r="2.5" class="led-body"/>
    <circle cx="152.5" cy="132.5" r="0.6" class="hole"/>
    <circle cx="152.5" cy="132.5" r="2.5" class="led-body"/>

    <!-- Row 8 -->
    <circle cx="12.5" cy="152.5" r="0.6" class="hole"/>
    <circle cx="12.5" cy="152.5" r="2.5" class="led-body"/>
    <circle cx="32.5" cy="152.5" r="0.6" class="hole"/>
    <circle cx="32.5" cy="152.5" r="2.5" class="led-body"/>
    <circle cx="52.5" cy="152.5" r="0.6" class="hole"/>
    <circle cx="52.5" cy="152.5" r="2.5" class="led-body"/>
    <circle cx="72.5" cy="152.5" r="0.6" class="hole"/>
    <circle cx="72.5" cy="152.5" r="2.5" class="led-body"/>
    <circle cx="92.5" cy="152.5" r="0.6" class="hole"/>
    <circle cx="92.5" cy="152.5" r="2.5" class="led-body"/>
    <circle cx="112.5" cy="152.5" r="0.6" class="hole"/>
    <circle cx="112.5" cy="152.5" r="2.5" class="led-body"/>
    <circle cx="132.5" cy="152.5" r="0.6" class="hole"/>
    <circle cx="132.5" cy="152.5" r="2.5" class="led-body"/>
    <circle cx="152.5" cy="152.5" r="0.6" class="hole"/>
    <circle cx="152.5" cy="152.5" r="2.5" class="led-body"/>
  </g>

  <!-- notes -->
  <text x="10" y="159" class="note">Pitch: 20 mm · LED Ø 5 mm · Hole Ø 1.2 mm · Canvas: 165×165 mm</text>
</svg>
